<?xml version="1.0" standalone="no"?><!DOCTYPE svg PUBLIC "-//W3C//DTD SVG 1.1//EN" "http://www.w3.org/Graphics/SVG/1.1/DTD/svg11.dtd"><svg t="1765183465423" class="icon" viewBox="0 0 1024 1024" version="1.1" xmlns="http://www.w3.org/2000/svg" p-id="18370" xmlns:xlink="http://www.w3.org/1999/xlink" width="200" height="200"><path d="M788.729 233.145c4.047 4.047 8.094 8.094 8.097 16.189l-4.046 4.046-28.329 165.927c0 16.185-16.19 24.282-32.378 24.281-16.188 0.001-24.284-16.189-24.283-32.376l12.144-68.797L351.658 710.69l68.798-12.144c16.186-8.093 32.381 0.001 36.422 20.237 4.048 20.232-4.046 28.327-24.278 32.374l-161.879 32.377-4.046 4.045c-12.146-4.046-16.193-8.093-20.24-12.14-4.046-4.047-8.093-8.093-8.089-16.189l4.045-4.046 28.332-165.925c-0.004-16.19 16.183-24.284 32.373-24.279 20.237 4.042 28.327 20.233 24.28 32.372l-12.14 68.801L683.51 297.9l-68.8 12.139c-16.187 0-32.374-8.092-32.373-24.28-0.005-16.189 8.093-32.38 24.278-32.38l161.882-32.374 4.047-4.046 16.185 16.186z" fill="#999999" p-id="18371"></path><path d="M659.784 38.336l323.759 323.758c12.14 12.14 12.14 28.327 0 40.466-12.144 12.143-28.331 12.143-40.471 0.004L619.314 78.807c-12.14-12.14-12.142-28.333 0-40.474 12.14-12.14 28.331-12.136 40.47 0.003zM92.026 606.095l323.758 323.758c12.14 12.14 12.141 28.326 0.001 40.466-12.145 12.145-28.331 12.144-40.47 0.004L51.557 646.563c-12.14-12.14-12.145-28.329 0-40.474 12.139-12.138 28.329-12.134 40.469 0.006z" fill="#999999" p-id="18372"></path></svg>