<?xml version="1.0" standalone="no"?><!DOCTYPE svg PUBLIC "-//W3C//DTD SVG 1.1//EN" "http://www.w3.org/Graphics/SVG/1.1/DTD/svg11.dtd"><svg t="1765613212227" class="icon" viewBox="0 0 1024 1024" version="1.1" xmlns="http://www.w3.org/2000/svg" p-id="2519" xmlns:xlink="http://www.w3.org/1999/xlink" width="200" height="200"><path d="M695.168 183.168a42.666667 42.666667 0 0 1 60.330667 0l170.666666 170.666667a42.666667 42.666667 0 0 1 0 60.330666l-170.666666 170.666667a42.666667 42.666667 0 0 1-60.330667-60.330667L835.669333 384l-140.501333-140.501333a42.666667 42.666667 0 0 1 0-60.330667z" fill="#14181F" p-id="2520"></path><path d="M341.333333 426.666667a170.666667 170.666667 0 0 0 0 341.333333h213.333334a42.666667 42.666667 0 1 1 0 85.333333H341.333333A256 256 0 0 1 341.333333 341.333333h554.666667a42.666667 42.666667 0 1 1 0 85.333334H341.333333z" fill="#14181F" p-id="2521"></path></svg>