<?xml version="1.0" standalone="no"?><!DOCTYPE svg PUBLIC "-//W3C//DTD SVG 1.1//EN" "http://www.w3.org/Graphics/SVG/1.1/DTD/svg11.dtd"><svg t="1765613115617" class="icon" viewBox="0 0 1024 1024" version="1.1" xmlns="http://www.w3.org/2000/svg" p-id="1865" xmlns:xlink="http://www.w3.org/1999/xlink" width="200" height="200"><path d="M682.666667 768H170.666667a42.666667 42.666667 0 1 1 0-85.333333h512a42.666667 42.666667 0 1 1 0 85.333333zM128 512a42.666667 42.666667 0 0 1 42.666667-42.666667h384a42.666667 42.666667 0 1 1 0 85.333334H170.666667a42.666667 42.666667 0 0 1-42.666667-42.666667zM128 298.666667a42.666667 42.666667 0 0 1 42.666667-42.666667h256a42.666667 42.666667 0 1 1 0 85.333333H170.666667a42.666667 42.666667 0 0 1-42.666667-42.666666zM768 170.666667a42.666667 42.666667 0 0 1 42.666667 42.666666v341.333334a42.666667 42.666667 0 1 1-85.333334 0V213.333333a42.666667 42.666667 0 0 1 42.666667-42.666666z" fill="#14181F" p-id="1866"></path><path d="M737.834667 183.168a42.666667 42.666667 0 0 1 60.330666 0l128 128a42.666667 42.666667 0 0 1-60.330666 60.330667L768 273.664l-97.834667 97.834667a42.666667 42.666667 0 1 1-60.330666-60.330667l128-128z" fill="#14181F" p-id="1867"></path></svg>