<?xml version="1.0" standalone="no"?><!DOCTYPE svg PUBLIC "-//W3C//DTD SVG 1.1//EN" "http://www.w3.org/Graphics/SVG/1.1/DTD/svg11.dtd"><svg t="1765613209551" class="icon" viewBox="0 0 1024 1024" version="1.1" xmlns="http://www.w3.org/2000/svg" p-id="2355" xmlns:xlink="http://www.w3.org/1999/xlink" width="200" height="200"><path d="M328.832 183.168a42.666667 42.666667 0 0 1 0 60.330667L188.330667 384l140.501333 140.501333a42.666667 42.666667 0 1 1-60.330667 60.330667l-170.666666-170.666667a42.666667 42.666667 0 0 1 0-60.330666l170.666666-170.666667a42.666667 42.666667 0 0 1 60.330667 0z" fill="#14181F" p-id="2356"></path><path d="M85.333333 384a42.666667 42.666667 0 0 1 42.666667-42.666667h554.666667a256 256 0 0 1 0 512h-213.333334a42.666667 42.666667 0 1 1 0-85.333333h213.333334a170.666667 170.666667 0 0 0 0-341.333333H128a42.666667 42.666667 0 0 1-42.666667-42.666667z" fill="#14181F" p-id="2357"></path></svg>