<?xml version="1.0" standalone="no"?><!DOCTYPE svg PUBLIC "-//W3C//DTD SVG 1.1//EN" "http://www.w3.org/Graphics/SVG/1.1/DTD/svg11.dtd"><svg t="1765614677685" class="icon" viewBox="0 0 1024 1024" version="1.1" xmlns="http://www.w3.org/2000/svg" p-id="22785" xmlns:xlink="http://www.w3.org/1999/xlink" width="200" height="200"><path d="M396.8 473.088v210.432c0 20.48 16.896 36.864 36.864 36.864s36.864-16.896 36.864-36.864V473.088c0-20.48-16.896-36.864-36.864-36.864s-36.864 16.384-36.864 36.864zM588.8 473.088v210.432c0 20.48 16.896 36.864 36.864 36.864s36.864-16.896 36.864-36.864V473.088c0-20.48-16.896-36.864-36.864-36.864s-36.864 16.384-36.864 36.864z" p-id="22786"></path><path d="M865.792 252.416c-2.56-19.968-20.992-34.304-40.96-31.744l-122.368 17.408L691.2 158.72c-1.536-10.752-7.68-20.992-16.384-27.648-17.92-13.312-44.544-12.288-58.368-10.24l-253.952 35.84c-22.528 3.072-39.424 10.752-50.176 22.016-9.216 9.728-13.312 22.016-11.264 34.816L312.32 292.864l-121.344 16.896c-20.48 2.56-34.816 20.992-32.256 41.472s20.992 34.816 41.472 32.256h1.536l37.376-5.12c-0.512 2.56-1.024 5.632-1.024 8.704v448c0 37.888 31.232 69.12 69.12 69.12h448c37.888 0 69.12-31.232 69.12-69.12V387.072c0-20.48-16.896-36.864-36.864-36.864s-36.864 16.896-36.864 36.864v442.88H312.832V387.072c0-6.656-1.536-12.8-4.608-18.432L834.56 294.4c19.968-2.56 34.304-21.504 31.232-41.984z m-487.936-23.04l243.2-34.304 7.68 53.248-243.2 34.304-7.68-53.248z" p-id="22787"></path></svg>